<?xml version="1.0" standalone="no"?>
<!DOCTYPE svg PUBLIC "-//W3C//DTD SVG 20010904//EN"
 "http://www.w3.org/TR/2001/REC-SVG-20010904/DTD/svg10.dtd">
<svg version="1.0" xmlns="http://www.w3.org/2000/svg"
 width="700.000000pt" height="700.000000pt" viewBox="0 0 700.000000 700.000000"
 preserveAspectRatio="xMidYMid meet">
<metadata>
Created by potrace 1.11, written by Peter Selinger 2001-2013
</metadata>
<g transform="translate(0.000000,700.000000) scale(0.100000,-0.100000)"
fill="#000000" stroke="none">
<path d="M3865 6674 c-5 -1 -26 -5 -46 -8 -19 -4 -87 -36 -150 -72 -63 -36
-132 -76 -154 -88 -22 -13 -94 -55 -160 -94 -146 -85 -522 -304 -550 -320 -11
-6 -69 -40 -130 -75 -60 -35 -130 -75 -155 -89 -70 -40 -388 -225 -555 -323
-82 -48 -159 -93 -170 -99 -20 -11 -253 -146 -348 -201 -141 -82 -149 -91
-114 -123 12 -11 150 -94 307 -185 157 -90 301 -174 320 -185 19 -12 46 -27
60 -35 14 -7 306 -177 650 -377 344 -199 641 -371 660 -382 422 -241 464 -269
497 -326 l27 -46 -1 -1415 c0 -905 3 -1425 9 -1443 18 -51 -8 -62 438 195 162
93 311 179 330 190 44 25 274 158 320 186 19 11 41 24 49 28 8 3 64 35 125 71
61 36 127 74 146 84 19 11 64 37 100 58 63 37 91 52 195 112 28 16 57 33 65
38 8 6 125 73 260 150 135 77 252 144 260 150 8 5 58 34 111 64 101 58 144 95
162 136 14 33 19 2815 5 2880 -18 90 -70 136 -282 254 -27 15 -112 64 -190
110 -77 45 -148 85 -156 89 -8 4 -31 17 -50 28 -57 34 -211 124 -260 151 -25
14 -128 74 -230 133 -419 243 -828 479 -870 503 -25 14 -74 42 -109 64 -34 21
-65 38 -67 38 -2 0 -33 18 -69 40 -36 22 -67 40 -70 40 -3 0 -27 14 -55 31
-55 34 -139 68 -155 63z"/>
<path d="M598 4773 c-9 -2 -21 -16 -26 -31 -6 -17 -10 -578 -11 -1446 -1
-1365 0 -1420 18 -1460 10 -22 31 -53 47 -67 16 -15 153 -98 304 -185 313
-180 758 -437 1160 -671 875 -508 1008 -583 1033 -583 21 0 60 34 64 56 2 10
4 654 5 1430 0 1044 -2 1420 -11 1446 -21 63 -25 66 -681 445 -162 94 -311
180 -330 192 -19 11 -53 31 -75 43 -22 12 -49 28 -60 35 -11 6 -36 20 -55 31
-19 10 -165 95 -325 187 -159 92 -304 175 -321 185 -16 10 -163 94 -325 187
-272 157 -379 215 -390 212 -2 -1 -12 -3 -21 -6z m70 -57 c26 -13 103 -57 172
-96 183 -106 191 -110 240 -138 25 -14 62 -36 82 -49 21 -12 40 -23 42 -23 3
0 26 -13 53 -29 52 -31 519 -302 593 -343 25 -14 144 -83 265 -153 264 -153
278 -161 335 -193 25 -13 50 -28 55 -32 6 -4 125 -74 265 -155 329 -190 341
-198 364 -237 19 -32 20 -64 20 -1438 0 -773 -4 -1417 -7 -1432 -4 -16 -12
-28 -18 -28 -20 0 -113 50 -374 203 -233 137 -234 137 -285 165 -25 13 -49 27
-55 32 -5 4 -30 19 -55 32 -72 40 -111 63 -165 95 -27 17 -153 90 -280 163
-126 74 -297 173 -380 221 -82 48 -166 96 -185 107 -19 10 -59 33 -88 51 -29
17 -55 31 -58 31 -3 0 -18 8 -32 19 -15 10 -49 31 -77 46 -84 46 -306 175
-383 222 -126 77 -113 -100 -112 1539 1 779 4 1423 7 1430 7 18 6 18 61 -10z"/>
</g>
</svg>
